<svg id="svg" fill="#696969" stroke="#696969" width="200" height="200" version="1.1" viewBox="144 144 512 512" xmlns="http://www.w3.org/2000/svg">
    <g id="IconSvg_bgCarrier" stroke-width="0"></g>
    <g id="IconSvg_tracerCarrier" stroke-linecap="round" stroke-linejoin="round" stroke="#CCCCCC" stroke-width="0">
      <path xmlns="http://www.w3.org/2000/svg" d="m399.98 279.09c-96.047 0-180.72 44.293-228.92 112.1-3.5898 5.0664-3.9062 12.035 0 17.477 48.199 67.805 132.87 112.25 228.92 112.25 96.047 0 180.72-44.449 228.92-112.25 3.8477-4.9297 3.7656-12.547 0-17.477-48.199-67.805-132.87-112.1-228.92-112.1zm0 30.23c82.297 0 154.15 36.391 197.27 90.688-43.129 54.242-115.03 90.688-197.27 90.688-82.246 0-154.14-36.441-197.27-90.688 43.121-54.297 114.98-90.688 197.27-90.688zm0 10.078c-44.34 0-80.609 36.27-80.609 80.609s36.27 80.609 80.609 80.609c44.34 0 80.609-36.27 80.609-80.609s-36.27-80.609-80.609-80.609zm0 30.23c28.004 0 50.383 22.379 50.383 50.383 0 28.004-22.379 50.383-50.383 50.383-28.004 0-50.383-22.379-50.383-50.383 0-28.004 22.379-50.383 50.383-50.383z"></path>

      </g>
     <g id="IconSvg_iconCarrier">
      <path xmlns="http://www.w3.org/2000/svg" d="m399.98 279.09c-96.047 0-180.72 44.293-228.92 112.1-3.5898 5.0664-3.9062 12.035 0 17.477 48.199 67.805 132.87 112.25 228.92 112.25 96.047 0 180.72-44.449 228.92-112.25 3.8477-4.9297 3.7656-12.547 0-17.477-48.199-67.805-132.87-112.1-228.92-112.1zm0 30.23c82.297 0 154.15 36.391 197.27 90.688-43.129 54.242-115.03 90.688-197.27 90.688-82.246 0-154.14-36.441-197.27-90.688 43.121-54.297 114.98-90.688 197.27-90.688zm0 10.078c-44.34 0-80.609 36.27-80.609 80.609s36.27 80.609 80.609 80.609c44.34 0 80.609-36.27 80.609-80.609s-36.27-80.609-80.609-80.609zm0 30.23c28.004 0 50.383 22.379 50.383 50.383 0 28.004-22.379 50.383-50.383 50.383-28.004 0-50.383-22.379-50.383-50.383 0-28.004 22.379-50.383 50.383-50.383z"></path>

      </g>
      </svg>